<svg width="16" height="16" viewBox="0 0 16 16" fill="none" xmlns="http://www.w3.org/2000/svg">
<mask id="mask0_3371_1442" style="mask-type:alpha" maskUnits="userSpaceOnUse" x="0" y="0" width="16" height="16">
<path d="M8.99968 1.3335C8.99968 0.781211 8.55196 0.333496 7.99968 0.333496C7.44739 0.333496 6.99968 0.781211 6.99968 1.3335V7.00016H1.33301C0.780724 7.00016 0.333008 7.44788 0.333008 8.00016C0.333008 8.55245 0.780724 9.00016 1.33301 9.00016H6.99968V14.6668C6.99968 15.2191 7.44739 15.6668 7.99968 15.6668C8.55196 15.6668 8.99968 15.2191 8.99968 14.6668V9.00016H14.6663C15.2186 9.00016 15.6663 8.55245 15.6663 8.00016C15.6663 7.44788 15.2186 7.00016 14.6663 7.00016H8.99968V1.3335Z" fill="white"/>
</mask>
<g mask="url(#mask0_3371_1442)">
<rect width="16" height="16" fill="white"/>
</g>
</svg>
