<svg width="20" height="21" viewBox="0 0 20 21" fill="none" xmlns="http://www.w3.org/2000/svg">
<mask id="mask0_3331_2460" style="mask-type:alpha" maskUnits="userSpaceOnUse" x="1" y="1" width="18" height="18">
<path fill-rule="evenodd" clip-rule="evenodd" d="M1.61612 1.73135C2.10427 1.2432 2.89573 1.2432 3.38388 1.73135L18.3839 16.7314C18.872 17.2195 18.872 18.011 18.3839 18.4991C17.8957 18.9873 17.1043 18.9873 16.6161 18.4991L1.61612 3.49912C1.12796 3.01096 1.12796 2.21951 1.61612 1.73135Z" fill="#354F79"/>
<path fill-rule="evenodd" clip-rule="evenodd" d="M18.3839 1.73135C17.8957 1.2432 17.1043 1.2432 16.6161 1.73135L1.61612 16.7314C1.12796 17.2195 1.12796 18.011 1.61612 18.4991C2.10427 18.9873 2.89573 18.9873 3.38388 18.4991L18.3839 3.49912C18.872 3.01096 18.872 2.21951 18.3839 1.73135Z" fill="#354F79"/>
</mask>
<g mask="url(#mask0_3331_2460)">
<rect y="0.115234" width="20" height="20" fill="#2F3036"/>
</g>
</svg>
